<svg width="15" height="20" viewBox="0 0 15 20" fill="none" xmlns="http://www.w3.org/2000/svg">
<path d="M7.5 0C3.375 0 0 3.6 0 8C0 13.4 6.5625 19.5 6.84375 19.8C7.03125 19.9 7.3125 20 7.5 20C7.6875 20 7.96875 19.9 8.15625 19.8C8.4375 19.5 15 13.4 15 8C15 3.6 11.625 0 7.5 0ZM7.5 17.7C5.53125 15.7 1.875 11.4 1.875 8C1.875 4.7 4.40625 2 7.5 2C10.5937 2 13.125 4.7 13.125 8C13.125 11.3 9.46875 15.7 7.5 17.7ZM7.5 4C5.4375 4 3.75 5.8 3.75 8C3.75 10.2 5.4375 12 7.5 12C9.5625 12 11.25 10.2 11.25 8C11.25 5.8 9.5625 4 7.5 4ZM7.5 10C6.46875 10 5.625 9.1 5.625 8C5.625 6.9 6.46875 6 7.5 6C8.53125 6 9.375 6.9 9.375 8C9.375 9.1 8.53125 10 7.5 10Z" fill="#A68ED4"/>
</svg>
