<svg width="33" height="26" viewBox="0 0 33 26" fill="none" xmlns="http://www.w3.org/2000/svg">
<path d="M10.197 0.466137C10.5008 0.167763 10.9129 9.0105e-05 11.3426 0H21.0648C21.4945 9.0105e-05 21.9066 0.167763 22.2104 0.466137L24.9764 3.18182H29.1667C30.0262 3.18182 30.8505 3.51704 31.4582 4.11375C32.066 4.71046 32.4074 5.51977 32.4074 6.36364V22.2727C32.4074 23.1166 32.066 23.9259 31.4582 24.5226C30.8505 25.1193 30.0262 25.4545 29.1667 25.4545H3.24074C2.38124 25.4545 1.55695 25.1193 0.949191 24.5226C0.341434 23.9259 0 23.1166 0 22.2727V6.36364C0 5.51977 0.341434 4.71046 0.949191 4.11375C1.55695 3.51704 2.38124 3.18182 3.24074 3.18182H7.43102L10.197 0.466137ZM12.0134 3.18182L9.24745 5.8975C8.94365 6.19587 8.53157 6.36355 8.10185 6.36364H3.24074V22.2727H29.1667V6.36364H24.3056C23.8758 6.36355 23.4638 6.19587 23.16 5.8975L20.394 3.18182H12.0134ZM16.2037 10.3409C15.3442 10.3409 14.5199 10.6761 13.9122 11.2728C13.3044 11.8695 12.963 12.6789 12.963 13.5227C12.963 14.3666 13.3044 15.1759 13.9122 15.7726C14.5199 16.3693 15.3442 16.7045 16.2037 16.7045C17.0632 16.7045 17.8875 16.3693 18.4953 15.7726C19.103 15.1759 19.4444 14.3666 19.4444 13.5227C19.4444 12.6789 19.103 11.8695 18.4953 11.2728C17.8875 10.6761 17.0632 10.3409 16.2037 10.3409ZM9.72222 13.5227C9.72222 11.835 10.4051 10.2164 11.6206 9.02296C12.8361 7.82954 14.4847 7.15909 16.2037 7.15909C17.9227 7.15909 19.5713 7.82954 20.7868 9.02296C22.0023 10.2164 22.6852 11.835 22.6852 13.5227C22.6852 15.2105 22.0023 16.8291 20.7868 18.0225C19.5713 19.2159 17.9227 19.8864 16.2037 19.8864C14.4847 19.8864 12.8361 19.2159 11.6206 18.0225C10.4051 16.8291 9.72222 15.2105 9.72222 13.5227Z" fill="white"/>
</svg>
