<svg width="40" height="10" viewBox="0 0 40 10" fill="none" xmlns="http://www.w3.org/2000/svg">
<path d="M20 10C21.3261 10 22.5979 9.47321 23.5355 8.53553C24.4732 7.59785 25 6.32608 25 5C25 3.67392 24.4732 2.40215 23.5355 1.46447C22.5979 0.526785 21.3261 0 20 0C18.6739 0 17.4021 0.526785 16.4645 1.46447C15.5268 2.40215 15 3.67392 15 5C15 6.32608 15.5268 7.59785 16.4645 8.53553C17.4021 9.47321 18.6739 10 20 10ZM5 10C6.32608 10 7.59785 9.47321 8.53553 8.53553C9.47322 7.59785 10 6.32608 10 5C10 3.67392 9.47322 2.40215 8.53553 1.46447C7.59785 0.526785 6.32608 0 5 0C3.67392 0 2.40215 0.526785 1.46447 1.46447C0.526784 2.40215 0 3.67392 0 5C0 6.32608 0.526784 7.59785 1.46447 8.53553C2.40215 9.47321 3.67392 10 5 10ZM35 10C36.3261 10 37.5979 9.47321 38.5355 8.53553C39.4732 7.59785 40 6.32608 40 5C40 3.67392 39.4732 2.40215 38.5355 1.46447C37.5979 0.526785 36.3261 0 35 0C33.6739 0 32.4021 0.526785 31.4645 1.46447C30.5268 2.40215 30 3.67392 30 5C30 6.32608 30.5268 7.59785 31.4645 8.53553C32.4021 9.47321 33.6739 10 35 10Z" fill="white"/>
</svg>
