<svg width="30" height="30" viewBox="0 0 30 30" fill="none" xmlns="http://www.w3.org/2000/svg">
<g clip-path="url(#clip0_39_96)">
<path d="M14.9875 2.5C8.0875 2.5 2.5 8.1 2.5 15C2.5 21.9 8.0875 27.5 14.9875 27.5C21.9 27.5 27.5 21.9 27.5 15C27.5 8.1 21.9 2.5 14.9875 2.5ZM15 25C9.475 25 5 20.525 5 15C5 9.475 9.475 5 15 5C20.525 5 25 9.475 25 15C25 20.525 20.525 25 15 25Z" fill="#A68ED4"/>
<path d="M15.625 8.75H13.75V16.25L20.3125 20.1875L21.25 18.65L15.625 15.3125V8.75Z" fill="#A68ED4"/>
</g>
<defs>
<clipPath id="clip0_39_96">
<rect width="30" height="30" fill="white"/>
</clipPath>
</defs>
</svg>
