<svg width="57" height="57" viewBox="0 0 57 57" fill="none" xmlns="http://www.w3.org/2000/svg">
<g clip-path="url(#clip0_4_92)">
<g filter="url(#filter0_f_4_92)">
<circle cx="28.5" cy="28.5" r="28.5" fill="white"/>
</g>
<g filter="url(#filter1_f_4_92)">
<path d="M28 22.5321C26.8365 21.4887 25.3116 20.9408 23.7501 21.0051C22.1886 21.0693 20.7139 21.7406 19.64 22.876C18.5661 24.0114 17.9779 25.5211 18.0006 27.0838C18.0233 28.6464 18.6552 30.1385 19.7616 31.2421L26.5868 38.0663C26.9616 38.441 27.47 38.6515 28 38.6515C28.53 38.6515 29.0384 38.441 29.4132 38.0663L36.2384 31.2421C37.3448 30.1385 37.9767 28.6464 37.9994 27.0838C38.0221 25.5211 37.4339 24.0114 36.36 22.876C35.2861 21.7406 33.8114 21.0693 32.2499 21.0051C30.6884 20.9408 29.1635 21.4887 28 22.5321ZM26.8287 24.1751L27.2934 24.6389C27.4808 24.8262 27.735 24.9315 28 24.9315C28.265 24.9315 28.5192 24.8262 28.7066 24.6389L29.1713 24.1751C29.5401 23.7933 29.9812 23.4887 30.469 23.2792C30.9567 23.0697 31.4813 22.9594 32.0121 22.9548C32.5429 22.9502 33.0694 23.0514 33.5607 23.2524C34.052 23.4534 34.4983 23.7502 34.8737 24.1256C35.2491 24.5009 35.5459 24.9473 35.7469 25.4386C35.9479 25.9299 36.0491 26.4563 36.0445 26.9871C36.0399 27.518 35.9296 28.0426 35.72 28.5303C35.5105 29.018 35.206 29.4592 34.8241 29.8279L28 36.6531L21.1759 29.8279C20.4476 29.074 20.0447 28.0641 20.0538 27.0159C20.0629 25.9677 20.4833 24.965 21.2245 24.2238C21.9658 23.4826 22.9684 23.0622 24.0166 23.0531C25.0648 23.044 26.0747 23.4469 26.8287 24.1751Z" fill="#242757"/>
</g>
</g>
<defs>
<filter id="filter0_f_4_92" x="-4" y="-4" width="65" height="65" filterUnits="userSpaceOnUse" color-interpolation-filters="sRGB">
<feFlood flood-opacity="0" result="BackgroundImageFix"/>
<feBlend mode="normal" in="SourceGraphic" in2="BackgroundImageFix" result="shape"/>
<feGaussianBlur stdDeviation="2" result="effect1_foregroundBlur_4_92"/>
</filter>
<filter id="filter1_f_4_92" x="17" y="20" width="22" height="19.6515" filterUnits="userSpaceOnUse" color-interpolation-filters="sRGB">
<feFlood flood-opacity="0" result="BackgroundImageFix"/>
<feBlend mode="normal" in="SourceGraphic" in2="BackgroundImageFix" result="shape"/>
<feGaussianBlur stdDeviation="0.5" result="effect1_foregroundBlur_4_92"/>
</filter>
<clipPath id="clip0_4_92">
<rect width="57" height="57" fill="white"/>
</clipPath>
</defs>
</svg>
