<svg width="70" height="70" viewBox="0 0 70 70" fill="none" xmlns="http://www.w3.org/2000/svg">
<g clip-path="url(#clip0_13_222)">
<circle cx="35" cy="35" r="35" fill="url(#paint0_linear_13_222)"/>
<path d="M42.5 32.7737C44.433 32.7737 46 31.4474 46 29.8114C46 28.1754 44.433 26.8491 42.5 26.8491C40.567 26.8491 39 28.1754 39 29.8114C39 31.4474 40.567 32.7737 42.5 32.7737Z" fill="white"/>
<path d="M28.5 32.7737C30.433 32.7737 32 31.4474 32 29.8114C32 28.1754 30.433 26.8491 28.5 26.8491C26.567 26.8491 25 28.1754 25 29.8114C25 31.4474 26.567 32.7737 28.5 32.7737Z" fill="white"/>
<path d="M35.4795 15C24.1635 15 15 24.0685 15 35.2422C15 46.4159 24.1635 55.4844 35.4795 55.4844C46.816 55.4844 56 46.4159 56 35.2422C56 24.0685 46.816 15 35.4795 15ZM35.5 51.4359C26.439 51.4359 19.1 44.1892 19.1 35.2422C19.1 26.2951 26.439 19.0484 35.5 19.0484C44.561 19.0484 51.9 26.2951 51.9 35.2422C51.9 44.1892 44.561 51.4359 35.5 51.4359ZM35.5 46.3754C40.2765 46.3754 44.356 43.4403 45.996 39.2906H42.5725C41.158 41.6994 38.534 43.339 35.5 43.339C32.466 43.339 29.8625 41.6994 28.4275 39.2906H25.004C26.644 43.4403 30.7235 46.3754 35.5 46.3754Z" fill="white"/>
</g>
<defs>
<linearGradient id="paint0_linear_13_222" x1="10" y1="59" x2="61" y2="9.5" gradientUnits="userSpaceOnUse">
<stop stop-color="#60A9EC"/>
<stop offset="1" stop-color="#B4E2EC"/>
</linearGradient>
<clipPath id="clip0_13_222">
<rect width="70" height="70" fill="white"/>
</clipPath>
</defs>
</svg>
