<svg width="70" height="70" viewBox="0 0 70 70" fill="none" xmlns="http://www.w3.org/2000/svg">
<g clip-path="url(#clip0_4_93)">
<g filter="url(#filter0_f_4_93)">
<circle cx="35" cy="35" r="35" fill="white"/>
</g>
<g filter="url(#filter1_f_4_93)">
<path d="M35 35.766C34.4182 35.2444 33.6558 34.9704 32.8751 35.0025C32.0943 35.0347 31.357 35.3703 30.82 35.938C30.2831 36.5057 29.989 37.2606 30.0003 38.0419C30.0117 38.8232 30.3276 39.5692 30.8808 40.1211L34.2934 43.5331C34.4808 43.7205 34.735 43.8258 35 43.8258C35.265 43.8258 35.5192 43.7205 35.7066 43.5331L39.1192 40.1211C39.6724 39.5692 39.9883 38.8232 39.9997 38.0419C40.011 37.2606 39.7169 36.5057 39.18 35.938C38.643 35.3703 37.9057 35.0347 37.1249 35.0025C36.3442 34.9704 35.5818 35.2444 35 35.766ZM34.4143 36.5876L34.6467 36.8194C34.7404 36.9131 34.8675 36.9657 35 36.9657C35.1325 36.9657 35.2596 36.9131 35.3533 36.8194L35.5857 36.5876C35.7701 36.3967 35.9906 36.2444 36.2345 36.1396C36.4784 36.0349 36.7407 35.9797 37.0061 35.9774C37.2715 35.9751 37.5347 36.0257 37.7803 36.1262C38.026 36.2267 38.2492 36.3751 38.4369 36.5628C38.6245 36.7505 38.773 36.9736 38.8735 37.2193C38.974 37.465 39.0245 37.7282 39.0222 37.9936C39.0199 38.259 38.9648 38.5213 38.86 38.7651C38.7553 39.009 38.603 39.2296 38.4121 39.414L35 42.8265L31.5879 39.414C31.2238 39.037 31.0223 38.5321 31.0269 38.008C31.0314 37.4839 31.2417 36.9825 31.6123 36.6119C31.9829 36.2413 32.4842 36.0311 33.0083 36.0265C33.5324 36.022 34.0373 36.2235 34.4143 36.5876Z" fill="#242757"/>
</g>
<g filter="url(#filter2_f_4_93)">
<path d="M30 18C30.442 18 30.866 18.1756 31.1785 18.4882C31.4911 18.8007 31.6667 19.2246 31.6667 19.6667V21.3333H38.3333V19.6667C38.3333 19.2246 38.5089 18.8007 38.8215 18.4882C39.134 18.1756 39.558 18 40 18C40.442 18 40.8659 18.1756 41.1785 18.4882C41.4911 18.8007 41.6667 19.2246 41.6667 19.6667V21.3333H46.6667C47.5507 21.3333 48.3986 21.6845 49.0237 22.3096C49.6488 22.9348 50 23.7826 50 24.6667V46.3333C50 47.2174 49.6488 48.0652 49.0237 48.6904C48.3986 49.3155 47.5507 49.6667 46.6667 49.6667H23.3333C22.4493 49.6667 21.6014 49.3155 20.9763 48.6904C20.3512 48.0652 20 47.2174 20 46.3333V24.6667C20 23.7826 20.3512 22.9348 20.9763 22.3096C21.6014 21.6845 22.4493 21.3333 23.3333 21.3333H28.3333V19.6667C28.3333 19.2246 28.5089 18.8007 28.8215 18.4882C29.134 18.1756 29.558 18 30 18ZM28.3333 24.6667H23.3333V29.6667H46.6667V24.6667H41.6667V26.3333C41.6667 26.7754 41.4911 27.1993 41.1785 27.5118C40.8659 27.8244 40.442 28 40 28C39.558 28 39.134 27.8244 38.8215 27.5118C38.5089 27.1993 38.3333 26.7754 38.3333 26.3333V24.6667H31.6667V26.3333C31.6667 26.7754 31.4911 27.1993 31.1785 27.5118C30.866 27.8244 30.442 28 30 28C29.558 28 29.134 27.8244 28.8215 27.5118C28.5089 27.1993 28.3333 26.7754 28.3333 26.3333V24.6667ZM46.6667 33H23.3333V46.3333H46.6667V33Z" fill="#242757"/>
</g>
</g>
<defs>
<filter id="filter0_f_4_93" x="-4" y="-4" width="78" height="78" filterUnits="userSpaceOnUse" color-interpolation-filters="sRGB">
<feFlood flood-opacity="0" result="BackgroundImageFix"/>
<feBlend mode="normal" in="SourceGraphic" in2="BackgroundImageFix" result="shape"/>
<feGaussianBlur stdDeviation="2" result="effect1_foregroundBlur_4_93"/>
</filter>
<filter id="filter1_f_4_93" x="29" y="34" width="12" height="10.8258" filterUnits="userSpaceOnUse" color-interpolation-filters="sRGB">
<feFlood flood-opacity="0" result="BackgroundImageFix"/>
<feBlend mode="normal" in="SourceGraphic" in2="BackgroundImageFix" result="shape"/>
<feGaussianBlur stdDeviation="0.5" result="effect1_foregroundBlur_4_93"/>
</filter>
<filter id="filter2_f_4_93" x="19" y="17" width="32" height="33.6666" filterUnits="userSpaceOnUse" color-interpolation-filters="sRGB">
<feFlood flood-opacity="0" result="BackgroundImageFix"/>
<feBlend mode="normal" in="SourceGraphic" in2="BackgroundImageFix" result="shape"/>
<feGaussianBlur stdDeviation="0.5" result="effect1_foregroundBlur_4_93"/>
</filter>
<clipPath id="clip0_4_93">
<rect width="70" height="70" fill="white"/>
</clipPath>
</defs>
</svg>
