<svg width="20" height="20" viewBox="0 0 20 20" fill="none" xmlns="http://www.w3.org/2000/svg">
<g filter="url(#filter0_d_21_306)">
<path d="M10 2C7.87827 2 5.84344 2.84285 4.34315 4.34315C2.84285 5.84344 2 7.87827 2 10C2 12.1217 2.84285 14.1566 4.34315 15.6569C5.84344 17.1571 7.87827 18 10 18C12.1217 18 14.1566 17.1571 15.6569 15.6569C17.1571 14.1566 18 12.1217 18 10C18 7.87827 17.1571 5.84344 15.6569 4.34315C14.1566 2.84285 12.1217 2 10 2ZM0 10C0 4.477 4.477 0 10 0C15.523 0 20 4.477 20 10C20 15.523 15.523 20 10 20C4.477 20 0 15.523 0 10ZM9.707 5.293C9.89447 5.48053 9.99979 5.73484 9.99979 6C9.99979 6.26516 9.89447 6.51947 9.707 6.707L7.414 9H15C15.2652 9 15.5196 9.10536 15.7071 9.29289C15.8946 9.48043 16 9.73478 16 10C16 10.2652 15.8946 10.5196 15.7071 10.7071C15.5196 10.8946 15.2652 11 15 11H7.414L9.707 13.293C9.88916 13.4816 9.98995 13.7342 9.98767 13.9964C9.9854 14.2586 9.88023 14.5094 9.69482 14.6948C9.50941 14.8802 9.2586 14.9854 8.9964 14.9877C8.7342 14.99 8.4816 14.8892 8.293 14.707L4.293 10.707C4.10553 10.5195 4.00021 10.2652 4.00021 10C4.00021 9.73484 4.10553 9.48053 4.293 9.293L8.293 5.293C8.48053 5.10553 8.73484 5.00021 9 5.00021C9.26516 5.00021 9.51947 5.10553 9.707 5.293Z" fill="white"/>
</g>
<defs>
<filter id="filter0_d_21_306" x="-4" y="0" width="28" height="28" filterUnits="userSpaceOnUse" color-interpolation-filters="sRGB">
<feFlood flood-opacity="0" result="BackgroundImageFix"/>
<feColorMatrix in="SourceAlpha" type="matrix" values="0 0 0 0 0 0 0 0 0 0 0 0 0 0 0 0 0 0 127 0" result="hardAlpha"/>
<feOffset dy="4"/>
<feGaussianBlur stdDeviation="2"/>
<feComposite in2="hardAlpha" operator="out"/>
<feColorMatrix type="matrix" values="0 0 0 0 0 0 0 0 0 0 0 0 0 0 0 0 0 0 0.25 0"/>
<feBlend mode="normal" in2="BackgroundImageFix" result="effect1_dropShadow_21_306"/>
<feBlend mode="normal" in="SourceGraphic" in2="effect1_dropShadow_21_306" result="shape"/>
</filter>
</defs>
</svg>
