<svg width="15" height="15" viewBox="0 0 15 15" fill="none" xmlns="http://www.w3.org/2000/svg">
<path d="M5 0C5.22101 0 5.43298 0.0831764 5.58926 0.231231C5.74554 0.379286 5.83333 0.580092 5.83333 0.789474V1.57895H9.16667V0.789474C9.16667 0.580092 9.25446 0.379286 9.41074 0.231231C9.56702 0.0831764 9.77899 0 10 0C10.221 0 10.433 0.0831764 10.5893 0.231231C10.7455 0.379286 10.8333 0.580092 10.8333 0.789474V1.57895H13.3333C13.7754 1.57895 14.1993 1.7453 14.5118 2.04141C14.8244 2.33752 15 2.73913 15 3.15789V13.4211C15 13.8398 14.8244 14.2414 14.5118 14.5375C14.1993 14.8336 13.7754 15 13.3333 15H1.66667C1.22464 15 0.800716 14.8336 0.488155 14.5375C0.175595 14.2414 0 13.8398 0 13.4211V3.15789C0 2.73913 0.175595 2.33752 0.488155 2.04141C0.800716 1.7453 1.22464 1.57895 1.66667 1.57895H4.16667V0.789474C4.16667 0.580092 4.25446 0.379286 4.41074 0.231231C4.56702 0.0831764 4.77899 0 5 0ZM4.16667 3.15789H1.66667V5.52632H13.3333V3.15789H10.8333V3.94737C10.8333 4.15675 10.7455 4.35756 10.5893 4.50561C10.433 4.65367 10.221 4.73684 10 4.73684C9.77899 4.73684 9.56702 4.65367 9.41074 4.50561C9.25446 4.35756 9.16667 4.15675 9.16667 3.94737V3.15789H5.83333V3.94737C5.83333 4.15675 5.74554 4.35756 5.58926 4.50561C5.43298 4.65367 5.22101 4.73684 5 4.73684C4.77899 4.73684 4.56702 4.65367 4.41074 4.50561C4.25446 4.35756 4.16667 4.15675 4.16667 3.94737V3.15789ZM13.3333 7.10526H1.66667V13.4211H13.3333V7.10526Z" fill="white"/>
</svg>
